<svg width="84" height="84" viewBox="0 0 84 84" fill="none" xmlns="http://www.w3.org/2000/svg">
<path fill-rule="evenodd" clip-rule="evenodd" d="M15.75 5.24756C12.8505 5.24756 10.5 7.59806 10.5 10.4976V52.4976C10.5 55.397 12.8505 57.7476 15.75 57.7476H39.375V68.6957C37.1374 69.4865 35.364 71.26 34.5731 73.4976H2.625C1.17525 73.4976 0 74.6728 0 76.1226C0 77.5723 1.17525 78.7476 2.625 78.7476H34.5731C35.6542 81.8062 38.5712 83.9976 42 83.9976C45.4288 83.9976 48.3458 81.8062 49.4269 78.7476H81.375C82.8247 78.7476 84 77.5723 84 76.1226C84 74.6728 82.8247 73.4976 81.375 73.4976H49.4269C48.636 71.26 46.8626 69.4865 44.625 68.6957V57.7476H68.25C71.1495 57.7476 73.5 55.397 73.5 52.4976V20.9976C73.5 18.0981 71.1495 15.7476 68.25 15.7476H40.25L37.9466 8.83736C37.232 6.69357 35.2258 5.24756 32.966 5.24756H15.75ZM32.966 10.4976H15.75V15.7476H34.716L32.966 10.4976ZM15.75 52.4976L15.75 20.9976H68.25V52.4976H15.75ZM42 78.7476C43.4497 78.7476 44.625 77.5723 44.625 76.1226C44.625 74.6728 43.4497 73.4976 42 73.4976C40.5503 73.4976 39.375 74.6728 39.375 76.1226C39.375 77.5723 40.5503 78.7476 42 78.7476Z" fill="#737373"/>
</svg>
