<?xml version="1.0" encoding="utf-8"?>
<!-- Generator: Adobe Illustrator 26.3.1, SVG Export Plug-In . SVG Version: 6.00 Build 0)  -->
<svg version="1.1" id="Layer_1" xmlns="http://www.w3.org/2000/svg" xmlns:xlink="http://www.w3.org/1999/xlink" x="0px" y="0px"
	 viewBox="0 0 168 60" style="enable-background:new 0 0 168 60;" xml:space="preserve">
<style type="text/css">
	.st0{fill-rule:evenodd;clip-rule:evenodd;fill:#2BB8F0;}
	.st1{fill:#2D3A47;}
	.st2{fill:#55616D;}
</style>
<g id="Layer_3">
	<path class="st0" d="M61.6300011,22.1399555l-9.4700012,27.5799999c7.1800003-4.7399979,15.079998-10.2200012,15.079998-10.2200012
		S64.5499954,30.2099552,61.6300011,22.1399555z M43.6800003,55.0399551
		c-1.1157188-0.5721207-2.0221825-1.4820824-2.5900002-2.5999985l-7.4000015-21.9999981L26.539999,51.7399559
		c-0.3704605,0.880703-0.9068737,1.6819267-1.5799999,2.3600006c-0.9054832,0.9520721-2.1661797,1.4846077-3.4799995,1.4700012
		c-2.1030502,0.1163063-4.0805492-1.0053177-5.0599995-2.8699989l-0.4499998-0.9599991L3.76,16.3599567
		c-0.3-0.9099998-0.5-1.6700001-0.6099999-2.2799997C2.0919182,14.7779303,1.0418503,15.487977,0,16.2099552
		c0,0,3.4100001,31.0899982,13.2200003,38.8899994C22.5799999,62.529953,33.4300003,60.6899529,43.6800003,55.0399551z
		 M23.2600002,2.6999559c11.5899982-4.8299999,24.2699986-3.5,31.9699993,6.3500004l-0.2200012,0.1599998
		c-0.5499992,0.4200001-0.9300003,0.8699999-1.1399994,1.3400002c-0.2099991,0.46-0.4799995,1.1899996-0.8199997,2.1599998
		l-6.9599991,21.4299965l-7.2799988-22.1299973c-0.3825874-0.8353939-0.9969101-1.5434265-1.7700005-2.04
		C36.1786537,9.2764816,35.1058121,8.8988695,34,8.8999557c-1.0499992,0-1.9199982,0.1499996-2.5900002,0.4499998
		c-1.5731907,0.6918087-2.7569408,2.0478067-3.2299995,3.6999998l-6.8999996,20.9699955l-6.9499998-21.2999973
		c-0.2892361-1.1214466-0.7843027-2.1793976-1.46-3.1199999C12.5700006,9.1899538,12.170001,8.8999538,11.670001,8.739954
		c3.7297516-2.2630892,7.604846-4.2774677,11.5999994-6.0300007L23.2600002,2.6999559z"/>
	<g>
		<g>
			<path class="st1" d="M73.1806641,1.1022949h5.2080078l6.8320312,20.5517578l6.8320312-20.5517578h5.1523438l6.8320312,20.5517578
				l6.8320312-20.5517578h5.2089844l-9.4082031,27.2719727h-5.2089844l-6.8320312-19.487793l-6.8320312,19.487793h-5.2075195
				L73.1806641,1.1022949z"/>
			<path class="st1" d="M118.7597656,27.4782715l0.7285156-4.815918c2.6123047,0.9711914,5.5625,1.4560547,8.8476562,1.4560547
				c3.9941406,0,5.9921875-1.1010742,5.9921875-3.3041992c0-1.0449219-0.5234375-1.8569336-1.5683594-2.4360352
				c-1.0458984-0.578125-2.3056641-1.0263672-3.7802734-1.34375c-1.4746094-0.3168945-2.9589844-0.7089844-4.4511719-1.1762695
				c-1.4941406-0.4663086-2.7636719-1.2880859-3.8085938-2.4638672c-1.0458984-1.1757812-1.5673828-2.734375-1.5673828-4.6757812
				c0-2.7626953,0.9599609-4.8164062,2.8837891-6.1601562c1.921875-1.3442383,4.5634766-2.0161133,7.9238281-2.0161133
				c2.8740234,0,5.5810547,0.5791016,8.1201172,1.7358398l-0.7285156,4.8720703
				c-2.5009766-1.2319336-5.1513672-1.8476562-7.9511719-1.8476562c-3.4726562,0-5.2080078,1.0639648-5.2080078,3.1918945
				c0,1.6430664,1.7919922,2.875,5.3759766,3.6958008c1.0820312,0.2241211,1.9960938,0.4394531,2.7431641,0.644043
				c0.7470703,0.2055664,1.6054688,0.5234375,2.5761719,0.9521484c0.9707031,0.4296875,1.7548828,0.9150391,2.3525391,1.4560547
				c0.5966797,0.5415039,1.1103516,1.2597656,1.5400391,2.1557617c0.4287109,0.8959961,0.6435547,1.9042969,0.6435547,3.0239258
				c0,5.6376953-3.9199219,8.4560547-11.7597656,8.4560547C124.4160156,28.8781738,121.4482422,28.4108887,118.7597656,27.4782715z"
				/>
			<path class="st1" d="M149.8564453,39.8552246h-5.0400391V2.2224121c2.7246094-1.1201172,5.9726562-1.6801758,9.7441406-1.6801758
				c4.5917969,0,7.9794922,1.1479492,10.1640625,3.4438477C166.9082031,6.2824707,168,9.763916,168,14.4304199
				c0,4.5917969-1.1103516,8.1479492-3.3320312,10.6679688c-2.2207031,2.5200195-5.4228516,3.7797852-9.6035156,3.7797852
				c-2.2402344,0-3.9755859-0.2993164-5.2080078-0.8959961V39.8552246z M162.9042969,14.7102051
				c0-3.434082-0.6074219-5.8608398-1.8203125-7.2797852c-1.2128906-1.418457-3.3134766-2.1279297-6.2998047-2.1279297
				c-1.8671875,0-3.5097656,0.2431641-4.9277344,0.7275391v17.0800781c1.1943359,0.6723633,2.8369141,1.0083008,4.9277344,1.0083008
				c3.0244141,0,5.1328125-0.7368164,6.328125-2.2119141C162.3066406,20.4318848,162.9042969,18.0334473,162.9042969,14.7102051z"/>
		</g>
		<g>
			<path class="st2" d="M94.2949219,47.6970215v10.8271484c-1.8691406,0.6220703-3.8984375,0.9335938-6.0878906,0.9335938
				c-4.3828125,0-6.5732422-1.671875-6.5732422-5.015625c0-1.7519531,0.6054688-3.0322266,1.8154297-3.8398438
				c1.2109375-0.8066406,3.0390625-1.2109375,5.4824219-1.2109375h3.3554688v-1.7988281
				c0-1.1757812-0.3691406-2.0175781-1.1054688-2.5244141c-0.7382812-0.5068359-1.8574219-0.7617188-3.3554688-0.7617188
				c-1.6835938,0-3.1835938,0.2421875-4.4980469,0.7265625l-0.3457031-1.9023438
				c1.984375-0.4609375,3.609375-0.6914062,4.8769531-0.6914062C92.1503906,42.439209,94.2949219,44.1921387,94.2949219,47.6970215z
				 M92.2871094,57.1403809V51.017334h-3.2851562c-1.8457031,0-3.1992188,0.265625-4.0644531,0.7958984
				s-1.296875,1.40625-1.296875,2.6289062c0,1.1533203,0.3671875,1.9833984,1.1054688,2.4902344
				c0.7382812,0.5078125,1.8691406,0.7607422,3.390625,0.7607422
				C89.9355469,57.6931152,91.3203125,57.5095215,92.2871094,57.1403809z"/>
			<path class="st2" d="M96.875,42.7155762h2.0751953l4.7734375,13.6982422l4.8085938-13.6982422h2.0058594l4.8085938,13.6982422
				l4.7734375-13.6982422h2.0751953l-5.8115234,16.5h-2.0410156l-4.8076172-13.4208984l-4.8085938,13.4208984h-2.0058594
				L96.875,42.7155762z"/>
			<path class="st2" d="M124.4677734,58.5241699l0.3115234-1.8681641c1.7294922,0.6220703,3.5507812,0.9335938,5.4648438,0.9335938
				c1.3603516,0,2.4384766-0.2304688,3.234375-0.6914062s1.1933594-1.1533203,1.1933594-2.0761719
				c0-1.3828125-1.1640625-2.328125-3.4931641-2.8359375c-2.1914062-0.484375-3.6787109-0.96875-4.4628906-1.453125
				c-1.2685547-0.7832031-1.9023438-1.9248047-1.9023438-3.4238281c0-1.5449219,0.5537109-2.7099609,1.6601562-3.4941406
				c1.1074219-0.7841797,2.5947266-1.1757812,4.4628906-1.1757812c1.6826172,0,3.3554688,0.3574219,5.015625,1.0722656
				l-0.2773438,1.9023438c-1.5214844-0.7148438-3.1591797-1.0722656-4.9111328-1.0722656
				c-1.2001953,0-2.1572266,0.2246094-2.8710938,0.6748047c-0.7158203,0.4492188-1.0722656,1.1123047-1.0722656,1.9882812
				c0,1.3144531,1.1523438,2.2490234,3.4589844,2.8017578c0.7832031,0.1621094,1.3769531,0.2939453,1.78125,0.3984375
				c0.4033203,0.1035156,0.9511719,0.2880859,1.6425781,0.5527344c0.6923828,0.265625,1.2167969,0.5488281,1.5742188,0.8476562
				c0.3574219,0.2998047,0.6796875,0.7158203,0.96875,1.2451172c0.2880859,0.53125,0.4326172,1.1416016,0.4326172,1.8339844
				c0,1.5908203-0.5888672,2.7841797-1.7646484,3.5800781s-2.8017578,1.1933594-4.8769531,1.1933594
				C128.1914062,59.4577637,126.3359375,59.1462402,124.4677734,58.5241699z"/>
		</g>
		<g>
			<path class="st2" d="M92.8241119,39.7457428h-1.0400391v-9.7612324c0-1.9257812,0.9511719-2.8886719,2.8525391-2.8886719
				c0.6220703,0,1.2919922,0.1376953,2.0097656,0.4125977l-0.1435547,0.9511719
				c-0.6220703-0.2514648-1.2324219-0.3769531-1.8300781-0.3769531c-0.6220703,0-1.0859375,0.1435547-1.390625,0.4306641
				s-0.4580078,0.7597656-0.4580078,1.4174805v1.2563477h3.5351562v0.98633h-3.5351562V39.7457428z"/>
			<path class="st2" d="M101.1659088,31.0435925c2.4648438,0,3.6962891,1.470705,3.6962891,4.4140644
				c0,2.9423828-1.2314453,4.4140625-3.6962891,4.4140625c-2.4638672,0-3.6962891-1.4716797-3.6962891-4.4140625
				C97.4696198,32.5142975,98.7020416,31.0435925,101.1659088,31.0435925z M103.8036041,35.4576569
				c0-1.1728516-0.1972656-2.0371094-0.5917969-2.5927734c-0.3945312-0.5566406-1.0761719-0.8349609-2.0458984-0.8349609
				c-0.9443359,0-1.6210938,0.28125-2.0273438,0.84375s-0.6103516,1.4238281-0.6103516,2.5839844
				c0,1.171875,0.2001953,2.0390625,0.6015625,2.6015625c0.4003906,0.5625,1.0791016,0.8427734,2.0361328,0.8427734
				c0.9697266,0,1.6513672-0.2773438,2.0458984-0.8339844S103.8036041,36.6412506,103.8036041,35.4576569z"/>
			<path class="st2" d="M108.0545807,39.7457428h-1.0410156v-8.2001972
				c0.6572266-0.3105469,1.5068359-0.4658203,2.5478516-0.4658203c0.6220703,0,1.1777344,0.0712891,1.6689453,0.2148438
				l-0.2158203,0.9687519c-0.3349609-0.1308594-0.8193359-0.1972656-1.453125-0.1972656
				c-0.6103516,0-1.1123047,0.0839844-1.5068359,0.2509766V39.7457428z"/>
		</g>
	</g>
</g>
</svg>
