<svg xmlns="http://www.w3.org/2000/svg" viewBox="0 0 388.17 84.03"><defs><style>.cls-1{fill:#134bd6;}.cls-2{fill:#494a4c;}</style></defs><g id="Слой_2" data-name="Слой 2"><g id="Слой_1-2" data-name="Слой 1"><path class="cls-1" d="M177.07,31.18a13.21,13.21,0,0,0-5.42-5.31,18,18,0,0,0-8.6-1.91H137.62l-7.35,30.89h-.39L121.8,24H113l-8.1,30.82h-.37L97.22,24H87L99.66,68.32h9.15l8.42-29h.35l8.45,29h9.14l10.38-36.27V68.32h9.38V53.94h7.88a18.59,18.59,0,0,0,8.72-1.89A13.14,13.14,0,0,0,177,46.79,15.6,15.6,0,0,0,179,39,15.86,15.86,0,0,0,177.07,31.18Zm-8.66,11.68a6.24,6.24,0,0,1-2.64,2.62,9.45,9.45,0,0,1-4.48.94h-6.36V31.62h6.32a9.83,9.83,0,0,1,4.51.92,6.18,6.18,0,0,1,2.65,2.58,8.95,8.95,0,0,1,0,7.74Z"/><path class="cls-2" d="M210.85,51.64h9.52a9.59,9.59,0,0,1-1.19,4.64,8.15,8.15,0,0,1-3.46,3.21,12,12,0,0,1-5.45,1.14A10.39,10.39,0,0,1,200.19,54a20,20,0,0,1-1.4-7.89,19.18,19.18,0,0,1,1.43-7.85,11,11,0,0,1,4-4.9,10.58,10.58,0,0,1,6-1.69,11.66,11.66,0,0,1,3.33.45,8.92,8.92,0,0,1,2.68,1.31,8.28,8.28,0,0,1,2,2.08,10,10,0,0,1,1.27,2.81H229a16.34,16.34,0,0,0-2.06-6,17,17,0,0,0-4.13-4.73,19,19,0,0,0-5.77-3.09,21.88,21.88,0,0,0-7-1.09,21.37,21.37,0,0,0-8.17,1.54,19,19,0,0,0-6.6,4.48,20.31,20.31,0,0,0-4.41,7.18,27.55,27.55,0,0,0-1.57,9.63,26,26,0,0,0,2.63,12.12,18.87,18.87,0,0,0,7.35,7.86,23,23,0,0,0,20.89.5,16.83,16.83,0,0,0,6.8-6.45,19.51,19.51,0,0,0,2.47-10V44.58H210.85Z"/><path class="cls-2" d="M269.58,24H260.2V52a8.93,8.93,0,0,1-1.12,4.51,7.94,7.94,0,0,1-3.14,3.1,10.63,10.63,0,0,1-9.5,0,8,8,0,0,1-3.15-3.1A9,9,0,0,1,242.18,52V24H232.8V52.77a15,15,0,0,0,8.73,14.15,24,24,0,0,0,19.3,0,15.08,15.08,0,0,0,8.75-14.15Z"/><path class="cls-2" d="M284.1,24,268.78,68.32h10.06l3.29-10.12h16l3.28,10.12h10.05L296.19,24Zm.41,26.92L290,34.09h.35l5.45,16.79Z"/><path class="cls-2" d="M340.35,50.9A12.32,12.32,0,0,0,345.87,46a14.47,14.47,0,0,0,1.9-7.59,15.1,15.1,0,0,0-1.87-7.66,12.63,12.63,0,0,0-5.44-5.05A19,19,0,0,0,331.87,24h-17.5V68.32h9.38V52.59h6.85L339,68.32h10.35l-9.42-17.25C340.07,51,340.22,51,340.35,50.9Zm-16.6-19.28h6.32a11.09,11.09,0,0,1,4.5.8,5.5,5.5,0,0,1,2.66,2.3,7.3,7.3,0,0,1,.88,3.73,7,7,0,0,1-.88,3.66,5.36,5.36,0,0,1-2.65,2.21,11.72,11.72,0,0,1-4.46.73h-6.37Z"/><path class="cls-2" d="M385.56,34.22a18.14,18.14,0,0,0-7.44-7.61A23.57,23.57,0,0,0,366.6,24H350.74V68.32h15.73a23.92,23.92,0,0,0,11.62-2.66A18.13,18.13,0,0,0,385.56,58a25.36,25.36,0,0,0,2.61-11.92A25.21,25.21,0,0,0,385.56,34.22Zm-8.19,20a9.53,9.53,0,0,1-4.28,4.61,15,15,0,0,1-7,1.48h-6V32h6a15,15,0,0,1,7,1.48,9.42,9.42,0,0,1,4.27,4.59,19.27,19.27,0,0,1,1.44,8A19.52,19.52,0,0,1,377.37,54.19Z"/><path class="cls-2" d="M20.57,37.42,31.19,23a6.41,6.41,0,0,1,10.16-.22l12.11,15L74.54,16.49c-.19-2.45-.47-4.93-.87-7.44A76.42,76.42,0,0,0,37.22,0,76.48,76.48,0,0,0,.76,9.05C.43,11.15.18,13.22,0,15.28Z"/><path class="cls-1" d="M57.54,52a6.47,6.47,0,0,1-4.89,1.9A6.4,6.4,0,0,1,48,51.46L36.58,37.32l-10.27,14a6.42,6.42,0,0,1-4.8,2.6h-.37a6.42,6.42,0,0,1-4.7-2L.74,34.94C4.23,55,16.34,72.1,37.22,84,59.44,72.31,70.37,55.37,73.76,35.54Z"/></g></g></svg>