<?xml version="1.0" encoding="utf-8"?>
<!-- Generator: Adobe Illustrator 26.3.1, SVG Export Plug-In . SVG Version: 6.00 Build 0)  -->
<svg version="1.1" id="Layer_1" xmlns="http://www.w3.org/2000/svg" xmlns:xlink="http://www.w3.org/1999/xlink" x="0px" y="0px"
	 viewBox="0 0 168 60" style="enable-background:new 0 0 168 60;" xml:space="preserve">
<style type="text/css">
	.st0{fill-rule:evenodd;clip-rule:evenodd;fill:#FFFFFF;}
	.st1{fill:#FFFFFF;}
	.st2{enable-background:new    ;}
</style>
<path class="st0" d="M61.6169128,22.1474247L52.148922,49.7215652c7.1784744-4.7389908,15.0767937-10.2178307,15.0767937-10.2178307
	S64.5362854,30.2157097,61.6169128,22.1474247z M43.670723,55.0404358
	c-1.1154823-0.5719986-2.0217514-1.4817657-2.5894508-2.5994453l-7.3984299-21.9953251l-7.1484795,21.2954731
	c-0.3703823,0.8805161-0.9066811,1.6815681-1.5796642,2.3595009c-0.9052906,0.95187-2.16572,1.4842911-3.4792614,1.4696884
	c-2.1026039,0.1162796-4.0796814-1.0051041-5.0589237-2.8693886l-0.4499044-0.9597969L3.7592015,16.3686543
	C3.4592652,15.458847,3.2593076,14.699008,3.1493311,14.089138C2.0914741,14.7869625,1.0416291,15.4968586,0,16.2186832
	c0,0,3.4092758,31.083395,13.2171926,38.8817368C22.5752048,62.5288429,33.4229012,60.6892357,43.670723,55.0404358z
	 M23.2550602,2.7115536C34.842598-2.1174204,47.5199051-0.787703,55.2182693,9.0602055L54.9983139,9.220171
	c-0.549881,0.4199114-0.9298019,0.8698158-1.1397552,1.339716c-0.2099533,0.4599018-0.4798965,1.1897469-0.819828,2.1595411
	l-6.958519,21.4254456L38.8017578,12.019577c-0.3825035-0.8352165-0.9966965-1.5430994-1.7696228-2.039567
	c-0.8611641-0.6933279-1.9337769-1.070859-3.0393562-1.0697737c-1.0497742,0-1.91959,0.1499681-2.5894489,0.4499044
	c-1.5728569,0.6916618-2.7563553,2.0473719-3.2293148,3.699214l-6.8985329,20.9655437l-6.9485245-21.295475
	c-0.289175-1.1212091-0.7841368-2.1789351-1.4596901-3.119338c-0.2999363-0.4099121-0.699851-0.699851-1.1997452-0.8598166
	c3.72896-2.2626085,7.6032314-4.2765594,11.5975361-6.0287199L23.2550602,2.7115536z"/>
<g>
	<path class="st1" d="M73.1806641,0.5600586h5.2080078l6.8320312,20.5517578l6.8320312-20.5517578h5.1523438l6.8320312,20.5517578
		l6.8320312-20.5517578h5.2089844l-9.4082031,27.2719727h-5.2089844l-6.8320312-19.487793l-6.8320312,19.487793h-5.2075195
		L73.1806641,0.5600586z"/>
	<path class="st1" d="M118.7597656,26.9360352l0.7285156-4.815918c2.6123047,0.9711914,5.5625,1.4560547,8.8476562,1.4560547
		c3.9941406,0,5.9921875-1.1010742,5.9921875-3.3041992c0-1.0449219-0.5234375-1.8569336-1.5683594-2.4360352
		c-1.0458984-0.578125-2.3056641-1.0263672-3.7802734-1.34375c-1.4746094-0.3168945-2.9589844-0.7089844-4.4511719-1.1762695
		c-1.4941406-0.4663086-2.7636719-1.2880859-3.8085938-2.4638672c-1.0458984-1.1757812-1.5673828-2.734375-1.5673828-4.6757812
		c0-2.7626953,0.9599609-4.8164062,2.8837891-6.1601562C123.9580078,0.671875,126.5996094,0,129.9599609,0
		c2.8740234,0,5.5810547,0.5791016,8.1201172,1.7358398l-0.7285156,4.8720703
		c-2.5009766-1.2319336-5.1513672-1.8476562-7.9511719-1.8476562c-3.4726562,0-5.2080078,1.0639648-5.2080078,3.1918945
		c0,1.6430664,1.7919922,2.875,5.3759766,3.6958008c1.0820312,0.2241211,1.9960938,0.4394531,2.7431641,0.644043
		c0.7470703,0.2055664,1.6054688,0.5234375,2.5761719,0.9521484c0.9707031,0.4296875,1.7548828,0.9150391,2.3525391,1.4560547
		c0.5966797,0.5415039,1.1103516,1.2597656,1.5400391,2.1557617c0.4287109,0.8959961,0.6435547,1.9042969,0.6435547,3.0239258
		c0,5.6376953-3.9199219,8.4560547-11.7597656,8.4560547C124.4160156,28.3359375,121.4482422,27.8686523,118.7597656,26.9360352z"/>
	<path class="st1" d="M149.8564453,39.3129883h-5.0400391V1.6801758C147.5410156,0.5600586,150.7890625,0,154.5605469,0
		c4.5917969,0,7.9794922,1.1479492,10.1640625,3.4438477C166.9082031,5.7402344,168,9.2216797,168,13.8881836
		c0,4.5917969-1.1103516,8.1479492-3.3320312,10.6679688c-2.2207031,2.5200195-5.4228516,3.7797852-9.6035156,3.7797852
		c-2.2402344,0-3.9755859-0.2993164-5.2080078-0.8959961V39.3129883z M162.9042969,14.1679688
		c0-3.434082-0.6074219-5.8608398-1.8203125-7.2797852c-1.2128906-1.418457-3.3134766-2.1279297-6.2998047-2.1279297
		c-1.8671875,0-3.5097656,0.2431641-4.9277344,0.7275391v17.0800781c1.1943359,0.6723633,2.8369141,1.0083008,4.9277344,1.0083008
		c3.0244141,0,5.1328125-0.7368164,6.328125-2.2119141C162.3066406,19.8896484,162.9042969,17.4912109,162.9042969,14.1679688z"/>
</g>
<g class="st2">
	<path class="st1" d="M73.3540039,44.1650391h3.2216797v-5.5751953c0-1.3193359,0.3935547-2.3632812,1.1811523-3.1337891
		c0.7871094-0.7695312,1.8354492-1.1542969,3.1445312-1.1542969c0.8588867,0,1.7587891,0.1210938,2.699707,0.3623047v2.1777344
		h-0.1533203c-0.7568359-0.1982422-1.5336914-0.296875-2.331543-0.296875c-0.6547852,0-1.1918945,0.2089844-1.6108398,0.6269531
		c-0.4194336,0.4179688-0.6289062,0.9677734-0.6289062,1.6494141v5.34375h3.5898438v1.9462891h-3.5898438v13.4267578h-2.3007812
		V46.1113281h-3.2216797V44.1650391z"/>
	<path class="st1" d="M84.1230469,51.8515625c0-2.3085938,0.7148438-4.2441406,2.1474609-5.8056641
		c1.4316406-1.5615234,3.2216797-2.3427734,5.3691406-2.3427734c2.1269531,0,3.90625,0.78125,5.3378906,2.3427734
		S99.125,49.5429688,99.125,51.8515625c0,2.3095703-0.7158203,4.2451172-2.1474609,5.8066406S93.7666016,60,91.6396484,60
		c-2.1279297,0-3.9121094-0.7861328-5.3535156-2.3583984C84.84375,56.0693359,84.1230469,54.1396484,84.1230469,51.8515625z
		 M86.3935547,51.8515625c0,1.6494141,0.5107422,3.046875,1.5332031,4.1894531
		c1.0019531,1.1445312,2.2402344,1.7158203,3.7128906,1.7158203s2.7099609-0.5712891,3.7119141-1.7158203
		c1.0019531-1.1425781,1.5039062-2.5400391,1.5039062-4.1894531s-0.5019531-3.0458984-1.5039062-4.1894531
		s-2.2392578-1.7148438-3.7119141-1.7148438s-2.7158203,0.5712891-3.7275391,1.7148438
		C86.8994141,48.8056641,86.3935547,50.2021484,86.3935547,51.8515625z"/>
	<path class="st1" d="M102.7148438,45.8144531c2.2900391-1.4072266,4.4589844-2.1113281,6.5039062-2.1113281
		c0.4501953,0,0.9208984,0.0664062,1.4111328,0.1982422v2.2431641h-0.0917969
		c-0.3066406-0.0878906-0.7363281-0.1318359-1.2880859-0.1318359c-1.3505859,0-2.7822266,0.4951172-4.2958984,1.484375v12.0410156
		h-2.2392578V45.8144531z"/>
	<path class="st1" d="M118.0537109,53.6992188c0.265625-0.5498047,0.6484375-1.0058594,1.1503906-1.3691406
		c0.5009766-0.3623047,1.0429688-0.6757812,1.6259766-0.9404297c0.5830078-0.2636719,1.2783203-0.4833984,2.0859375-0.6591797
		s1.5546875-0.3076172,2.2402344-0.3964844c0.6845703-0.0869141,1.4667969-0.1650391,2.3466797-0.2304688v-1.3193359
		c0-1.0117188-0.3066406-1.765625-0.9208984-2.2597656c-0.6132812-0.4951172-1.421875-0.7421875-2.4228516-0.7421875
		c-1.984375,0-3.7744141,0.5722656-5.3691406,1.7148438h-0.2148438v-2.2431641
		c1.5742188-1.0332031,3.4667969-1.5507812,5.6757812-1.5507812c1.6767578,0,3.0107422,0.4023438,4.0039062,1.2041016
		c0.9912109,0.8037109,1.4873047,2.0625,1.4873047,3.7773438v10.2265625C127.1855469,59.6376953,124.9667969,60,123.0849609,60
		c-1.6367188,0-2.9501953-0.4072266-3.9423828-1.2207031s-1.4882812-1.890625-1.4882812-3.2324219
		C117.6542969,54.8652344,117.7871094,54.2490234,118.0537109,53.6992188z M120.8457031,57.2617188
		c0.6132812,0.4404297,1.3388672,0.6601562,2.1777344,0.6601562c1.5136719,0,3.0068359-0.1982422,4.4794922-0.59375v-5.6416016
		c-0.59375,0.0664062-1.0429688,0.1210938-1.3496094,0.1650391c-0.3076172,0.0449219-0.7363281,0.1044922-1.2890625,0.1816406
		c-0.5517578,0.0771484-0.9873047,0.1601562-1.3037109,0.2470703c-0.3173828,0.0888672-0.6953125,0.1982422-1.1347656,0.3300781
		c-0.4404297,0.1318359-0.7880859,0.2861328-1.0439453,0.4619141c-0.2558594,0.1767578-0.5058594,0.3740234-0.7509766,0.59375
		c-0.2460938,0.2207031-0.4248047,0.4736328-0.5371094,0.7587891c-0.1123047,0.2861328-0.1689453,0.6054688-0.1689453,0.9570312
		C119.9248047,56.1953125,120.2314453,56.8222656,120.8457031,57.2617188z"/>
	<path class="st1" d="M132.9335938,44.1650391h2.3935547l3.5585938,12.3056641l3.7119141-12.3056641h1.7490234l3.6816406,12.3056641
		l3.5585938-12.3056641h2.3320312l-4.6025391,15.3730469h-2.1777344l-3.6816406-11.9414062l-3.6513672,11.9414062h-2.2392578
		L132.9335938,44.1650391z"/>
	<path class="st1" d="M156.1884766,48.1904297c0-1.3417969,0.5009766-2.4306641,1.5039062-3.2666016
		c1.0019531-0.8349609,2.4130859-1.2529297,4.2333984-1.2529297c2.0859375,0,3.8857422,0.5273438,5.3994141,1.5830078v2.2099609
		h-0.1835938c-1.6982422-1.1650391-3.4160156-1.7480469-5.1542969-1.7480469c-1.1660156,0-2.0507812,0.2421875-2.6542969,0.7255859
		c-0.6035156,0.484375-0.9042969,1.0556641-0.9042969,1.7158203c0,0.6162109,0.21875,1.0888672,0.6591797,1.4179688
		c0.4394531,0.3300781,1.0996094,0.59375,1.9785156,0.7919922l2.9453125,0.6269531
		c1.3085938,0.2861328,2.3017578,0.7587891,2.9765625,1.4189453C167.6630859,53.0722656,168,54.0517578,168,55.3486328
		c0,1.3417969-0.5107422,2.4521484-1.5332031,3.3320312C165.4433594,59.5595703,163.9609375,60,162.0175781,60
		c-2.3115234,0-4.2441406-0.5166016-5.7978516-1.5507812v-2.2431641h0.2148438
		c1.7587891,1.1875,3.6298828,1.7822266,5.6142578,1.7822266c1.1445312,0,2.0449219-0.2695312,2.6992188-0.8085938
		s0.9824219-1.1386719,0.9824219-1.7978516c0-1.2314453-0.9716797-2.0673828-2.9150391-2.5068359l-2.9755859-0.6601562
		C157.4052734,51.6865234,156.1884766,50.3457031,156.1884766,48.1904297z"/>
</g>
</svg>
