<svg width="84" height="84" viewBox="0 0 84 84" fill="none" xmlns="http://www.w3.org/2000/svg">
<path d="M0 10.5C0 7.60051 2.35051 5.25 5.25 5.25H78.75C81.6495 5.25 84 7.60051 84 10.5V44.7706C84 46.7731 81.2878 47.8248 79.6791 46.6324C79.1095 46.2102 78.75 45.5521 78.75 44.8432V15.75H5.25V63H39.514C40.9173 63 42.0012 64.2216 42.0013 65.6249C42.0013 67.0283 40.9174 68.25 39.514 68.25H5.25C2.35051 68.25 0 65.8995 0 63V10.5Z" fill="#737373"/>
<path fill-rule="evenodd" clip-rule="evenodd" d="M63 48.5628C63 47.8379 63.5876 47.2503 64.3125 47.2503H66.9375C67.6624 47.2503 68.25 47.8379 68.25 48.5628V52.7629C69.9257 53.103 71.4855 53.7624 72.8631 54.6749L75.8339 51.7042C76.3464 51.1916 77.1774 51.1916 77.69 51.7042L79.5462 53.5603C80.0587 54.0729 80.0587 54.9039 79.5462 55.4165L76.5755 58.3872C77.4879 59.7648 78.1473 61.3246 78.4875 63.0003H82.6875C83.4124 63.0003 84 63.5879 84 64.3128V66.9378C84 67.6627 83.4124 68.2503 82.6875 68.2503H78.4875C78.1473 69.9261 77.4879 71.4859 76.5755 72.8635L79.5462 75.8342C80.0587 76.3467 80.0587 77.1778 79.5462 77.6903L77.69 79.5465C77.1774 80.059 76.3464 80.059 75.8339 79.5465L72.8631 76.5758C71.4855 77.4882 69.9257 78.1476 68.25 78.4878V82.6878C68.25 83.4127 67.6624 84.0003 66.9375 84.0003H64.3125C63.5876 84.0003 63 83.4127 63 82.6878V78.4878C61.3243 78.1476 59.7645 77.4882 58.3869 76.5758L55.4161 79.5465C54.9036 80.0591 54.0726 80.0591 53.56 79.5465L51.7038 77.6903C51.1913 77.1778 51.1913 76.3467 51.7038 75.8342L54.6745 72.8635C53.7621 71.4859 53.1027 69.9261 52.7625 68.2503H48.5625C47.8376 68.2503 47.25 67.6627 47.25 66.9378V64.3128C47.25 63.5879 47.8376 63.0003 48.5625 63.0003H52.7625C53.1027 61.3246 53.7621 59.7648 54.6745 58.3872L51.7038 55.4165C51.1913 54.9039 51.1913 54.0729 51.7038 53.5603L53.56 51.7042C54.0726 51.1916 54.9036 51.1916 55.4161 51.7042L58.3869 54.6749C59.7645 53.7624 61.3243 53.103 63 52.7629V48.5628ZM65.625 73.5003C69.9742 73.5003 73.5 69.9746 73.5 65.6253C73.5 61.2761 69.9742 57.7503 65.625 57.7503C61.2758 57.7503 57.75 61.2761 57.75 65.6253C57.75 69.9746 61.2758 73.5003 65.625 73.5003Z" fill="#737373"/>
</svg>
