<svg width="84" height="84" viewBox="0 0 84 84" fill="none" xmlns="http://www.w3.org/2000/svg">
<path d="M15.75 36.75C12.8505 36.75 10.5 39.1005 10.5 42C10.5 44.8995 12.8505 47.25 15.75 47.25C18.6495 47.25 21 44.8995 21 42C21 39.1005 18.6495 36.75 15.75 36.75Z" fill="#737373"/>
<path d="M26.25 42C26.25 39.1005 28.6005 36.75 31.5 36.75C34.3995 36.75 36.75 39.1005 36.75 42C36.75 44.8995 34.3995 47.25 31.5 47.25C28.6005 47.25 26.25 44.8995 26.25 42Z" fill="#737373"/>
<path d="M47.25 36.75C44.3505 36.75 42 39.1005 42 42C42 44.8995 44.3505 47.25 47.25 47.25H68.25C71.1495 47.25 73.5 44.8995 73.5 42C73.5 39.1005 71.1495 36.75 68.25 36.75H47.25Z" fill="#737373"/>
<path d="M15.75 10.5C12.8505 10.5 10.5 12.8505 10.5 15.75C10.5 18.6495 12.8505 21 15.75 21C18.6495 21 21 18.6495 21 15.75C21 12.8505 18.6495 10.5 15.75 10.5Z" fill="#737373"/>
<path d="M31.5 10.5C28.6005 10.5 26.25 12.8505 26.25 15.75C26.25 18.6495 28.6005 21 31.5 21C34.3995 21 36.75 18.6495 36.75 15.75C36.75 12.8505 34.3995 10.5 31.5 10.5Z" fill="#737373"/>
<path d="M42 15.75C42 12.8505 44.3505 10.5 47.25 10.5H68.25C71.1495 10.5 73.5 12.8505 73.5 15.75C73.5 18.6495 71.1495 21 68.25 21H47.25C44.3505 21 42 18.6495 42 15.75Z" fill="#737373"/>
<path fill-rule="evenodd" clip-rule="evenodd" d="M0 21C0 24.1361 1.37486 26.951 3.55471 28.875C1.37486 30.799 0 33.6139 0 36.75V47.25C0 53.049 4.70101 57.75 10.5 57.75H39.3749V63.4481C37.1373 64.239 35.3639 66.0124 34.573 68.25H2.62499C1.17525 68.25 0 69.4252 0 70.875C0 72.3247 1.17525 73.4999 2.62499 73.4999H34.573C35.6541 76.5586 38.5711 78.7499 41.9999 78.7499C45.4287 78.7499 48.3457 76.5586 49.4267 73.4999H81.3748C82.8245 73.4999 83.9997 72.3247 83.9997 70.875C83.9997 69.4252 82.8245 68.25 81.3748 68.25H49.4267C48.6359 66.0124 46.8624 64.239 44.6249 63.4481V57.75H73.5C79.299 57.75 84 53.049 84 47.25V36.75C84 33.6139 82.6251 30.799 80.4453 28.875C82.6251 26.951 84 24.1361 84 21V10.5C84 4.70101 79.299 0 73.5 0H10.5C4.70101 0 0 4.70101 0 10.5V21ZM73.5 52.5C76.3995 52.5 78.75 50.1495 78.75 47.25V36.75C78.75 33.8505 76.3995 31.5 73.5 31.5H10.5C7.6005 31.5 5.25 33.8505 5.25 36.75V47.25C5.25 50.1495 7.60051 52.5 10.5 52.5H73.5ZM73.5 5.25H10.5C7.6005 5.25 5.25 7.60051 5.25 10.5V21C5.25 23.8995 7.60051 26.25 10.5 26.25H73.5C76.3995 26.25 78.75 23.8995 78.75 21V10.5C78.75 7.60051 76.3995 5.25 73.5 5.25ZM44.6249 70.875C44.6249 72.3247 43.4496 73.4999 41.9999 73.4999C40.5501 73.4999 39.3749 72.3247 39.3749 70.875C39.3749 69.4252 40.5501 68.25 41.9999 68.25C43.4496 68.25 44.6249 69.4252 44.6249 70.875Z" fill="#737373"/>
</svg>
