<svg width="512" height="512" viewBox="0 0 512 512" fill="none" xmlns="http://www.w3.org/2000/svg">
<path fill-rule="evenodd" clip-rule="evenodd" d="M466.024 196.739L394.736 404.368C448.816 368.667 508.287 327.4 508.287 327.4C508.287 327.4 488.039 257.494 466.024 196.739ZM330.885 444.409C328.743 443.374 326.69 442.137 324.724 440.696C318.055 435.256 313.608 429.976 311.385 424.856L255.646 259.253C220.393 364.215 202.449 417.656 201.813 419.576C201.179 421.496 199.749 424.216 197.526 427.736C195.303 431.256 192.762 434.456 189.904 437.336C182.599 444.696 173.865 448.376 163.702 448.376C153.538 448.376 145.122 445.976 138.453 441.176C132.101 436.376 127.813 431.576 125.59 426.776L122.255 419.576L30.3101 153.171C28.0411 146.313 26.509 140.601 25.7137 136.037C11.0591 145.711 2 152.026 2 152.026C2 152.026 27.6931 386.161 101.526 444.845C171.979 500.843 253.736 486.927 330.885 444.409ZM177.166 50.4091C264.365 14.0529 359.902 24.087 417.863 98.2001C417.292 98.5773 416.736 98.9806 416.193 99.4102C412.064 102.61 409.206 105.97 407.618 109.49C406.03 113.01 403.965 118.45 401.425 125.81L349.021 287.093L294.235 120.531C292.33 115.411 287.883 110.291 280.895 105.17C273.909 99.7302 266.286 97.0101 258.029 97.0101C250.089 97.0101 243.578 98.1302 238.497 100.37C226.745 105.491 218.646 114.771 214.2 128.211L162.273 286.133L109.869 125.81C106.693 115.25 103.04 107.411 98.9118 102.29C96.6003 99.185 93.5878 97.0215 89.875 95.7996C118.449 78.8841 149.825 61.8086 177.166 50.4091Z" fill="#2BB8F0"/>
</svg>
